<!--
  Icons · v1
  Canvas: 1600 × 1200
  Curated icon library: Lucide for system icons (MIT), Simple Icons for brand (CC0).
  Embedded inline. No external fetches at render time.
-->
<svg xmlns="http://www.w3.org/2000/svg" viewBox="0 0 1600 1200" width="1600" height="1200">
  <rect width="1600" height="1200" fill="#FAFAF7"/>

  <!-- HEADER -->
  <text x="80" y="104"
        font-family="'IBM Plex Mono', ui-monospace, Menlo, monospace"
        font-size="11" font-weight="700" letter-spacing="2.4"
        fill="#3A352D">RZN  ·  DIAGRAM SYSTEM  ·  ICONS</text>
  <text x="80" y="160"
        font-family="Inter, sans-serif"
        font-size="36" font-weight="600" letter-spacing="-0.5"
        fill="#1A1A17">The icon library.</text>
  <text x="80" y="196"
        font-family="Inter, sans-serif"
        font-size="16" font-weight="400"
        fill="#3A352D">A typed primitive in the schema. System icons from Lucide (MIT). Brand icons from Simple Icons (CC0). Always inline SVG.</text>

  <line x1="80" y1="224" x2="1520" y2="224" stroke="#1A1A17" stroke-width="0.5" stroke-opacity="0.25"/>

  <!-- ============================================================ -->
  <!-- SYSTEM ICONS (left column)                                   -->
  <!-- ============================================================ -->

  <text x="80" y="264"
        font-family="'IBM Plex Mono', ui-monospace, Menlo, monospace"
        font-size="11" font-weight="700" letter-spacing="2"
        fill="#3A352D">SYSTEM ICONS  ·  Lucide subset, 24×24, 1.5 stroke</text>

  <!-- Each cell: icon (32×32 visual) at top, name below, in a 130 × 100 cell -->
  <!-- 5 cols, 5 rows = 25 icons. Cell w=132, gap=12. 5*132 + 4*12 = 708 (fits col 696 +12 margin) -->
  <!-- Adjust: 5 cols of 130w with 12 gap = 5*130 + 4*12 = 698 ≈ 696 -->

  <g font-family="'IBM Plex Mono', monospace" font-size="11" font-weight="500" fill="#3A352D"
     stroke="#1A1A17" stroke-width="1.5" stroke-linecap="round" stroke-linejoin="round">

    <!-- Row 1 ─ y center = 320, label y = 360 -->
    <g transform="translate(96, 320)">
      <g fill="none">
        <path d="M19 21v-2a4 4 0 0 0-4-4H9a4 4 0 0 0-4 4v2"/>
        <circle cx="12" cy="7" r="4"/>
      </g>
      <text x="12" y="44" stroke="none" fill="#3A352D" text-anchor="middle">user</text>
    </g>

    <g transform="translate(238, 320)">
      <g fill="none">
        <path d="M16 21v-2a4 4 0 0 0-4-4H6a4 4 0 0 0-4 4v2"/>
        <circle cx="9" cy="7" r="4"/>
        <path d="M22 21v-2a4 4 0 0 0-3-3.87"/>
        <path d="M16 3.13a4 4 0 0 1 0 7.75"/>
      </g>
      <text x="12" y="44" stroke="none" fill="#3A352D" text-anchor="middle">users</text>
    </g>

    <g transform="translate(380, 320)">
      <g fill="none">
        <rect x="4" y="4" width="16" height="16" rx="2"/>
        <rect x="9" y="9" width="6" height="6"/>
        <path d="M9 2v2"/><path d="M15 2v2"/>
        <path d="M9 20v2"/><path d="M15 20v2"/>
        <path d="M2 9h2"/><path d="M2 15h2"/>
        <path d="M20 9h2"/><path d="M20 15h2"/>
      </g>
      <text x="12" y="44" stroke="none" fill="#3A352D" text-anchor="middle">cpu</text>
    </g>

    <g transform="translate(522, 320)">
      <g fill="none">
        <path d="M12.22 2h-.44a2 2 0 0 0-2 2v.18a2 2 0 0 1-1 1.73l-.43.25a2 2 0 0 1-2 0l-.15-.08a2 2 0 0 0-2.73.73l-.22.38a2 2 0 0 0 .73 2.73l.15.1a2 2 0 0 1 1 1.72v.51a2 2 0 0 1-1 1.74l-.15.09a2 2 0 0 0-.73 2.73l.22.38a2 2 0 0 0 2.73.73l.15-.08a2 2 0 0 1 2 0l.43.25a2 2 0 0 1 1 1.73V20a2 2 0 0 0 2 2h.44a2 2 0 0 0 2-2v-.18a2 2 0 0 1 1-1.73l.43-.25a2 2 0 0 1 2 0l.15.08a2 2 0 0 0 2.73-.73l.22-.39a2 2 0 0 0-.73-2.73l-.15-.08a2 2 0 0 1-1-1.74v-.5a2 2 0 0 1 1-1.74l.15-.09a2 2 0 0 0 .73-2.73l-.22-.38a2 2 0 0 0-2.73-.73l-.15.08a2 2 0 0 1-2 0l-.43-.25a2 2 0 0 1-1-1.73V4a2 2 0 0 0-2-2z"/>
        <circle cx="12" cy="12" r="3"/>
      </g>
      <text x="12" y="44" stroke="none" fill="#3A352D" text-anchor="middle">cog</text>
    </g>

    <g transform="translate(664, 320)">
      <g fill="none">
        <polyline points="4 17 10 11 4 5"/>
        <line x1="12" y1="19" x2="20" y2="19"/>
      </g>
      <text x="12" y="44" stroke="none" fill="#3A352D" text-anchor="middle">terminal</text>
    </g>

    <!-- Row 2 ─ y center = 416 -->
    <g transform="translate(96, 416)">
      <g fill="none">
        <polyline points="16 18 22 12 16 6"/>
        <polyline points="8 6 2 12 8 18"/>
      </g>
      <text x="12" y="44" stroke="none" fill="#3A352D" text-anchor="middle">code</text>
    </g>

    <g transform="translate(238, 416)">
      <g fill="none">
        <circle cx="18" cy="5" r="3"/>
        <circle cx="6" cy="12" r="3"/>
        <circle cx="18" cy="19" r="3"/>
        <line x1="8.59" y1="13.51" x2="15.42" y2="17.49"/>
        <line x1="15.41" y1="6.51" x2="8.59" y2="10.49"/>
      </g>
      <text x="12" y="44" stroke="none" fill="#3A352D" text-anchor="middle">share-2</text>
    </g>

    <g transform="translate(380, 416)">
      <g fill="none">
        <path d="M19.439 7.85c-.049.322.059.648.289.878l1.568 1.568c.47.47.706 1.087.706 1.704s-.235 1.233-.706 1.704l-1.611 1.611a.98.98 0 0 1-.837.276c-.47-.07-.802-.48-.968-.925a2.501 2.501 0 1 0-3.214 3.214c.446.166.855.497.925.968a.979.979 0 0 1-.276.837l-1.61 1.61a2.404 2.404 0 0 1-1.705.707 2.402 2.402 0 0 1-1.704-.706l-1.568-1.568a1.026 1.026 0 0 0-.877-.29c-.493.074-.84.504-1.02.968a2.5 2.5 0 1 1-3.237-3.237c.464-.18.894-.527.967-1.02a1.026 1.026 0 0 0-.289-.877l-1.568-1.568A2.402 2.402 0 0 1 1.998 12c0-.617.236-1.234.706-1.704L4.23 8.77c.24-.24.581-.353.917-.303.515.077.877.528 1.073 1.01a2.5 2.5 0 1 0 3.259-3.259c-.482-.196-.933-.558-1.01-1.073-.05-.336.062-.676.303-.917l1.525-1.525A2.402 2.402 0 0 1 12 1.998c.617 0 1.234.236 1.704.706l1.568 1.568c.23.23.556.338.877.29.493-.074.84-.504 1.02-.968a2.5 2.5 0 1 1 3.237 3.237c-.464.18-.894.527-.967 1.02z"/>
      </g>
      <text x="12" y="44" stroke="none" fill="#3A352D" text-anchor="middle">puzzle</text>
    </g>

    <g transform="translate(522, 416)">
      <g fill="none">
        <circle cx="12" cy="12" r="10"/>
        <line x1="2" y1="12" x2="22" y2="12"/>
        <path d="M12 2a15.3 15.3 0 0 1 4 10 15.3 15.3 0 0 1-4 10 15.3 15.3 0 0 1-4-10 15.3 15.3 0 0 1 4-10z"/>
      </g>
      <text x="12" y="44" stroke="none" fill="#3A352D" text-anchor="middle">globe</text>
    </g>

    <g transform="translate(664, 416)">
      <g fill="none">
        <rect x="2" y="3" width="20" height="14" rx="2"/>
        <line x1="8" y1="21" x2="16" y2="21"/>
        <line x1="12" y1="17" x2="12" y2="21"/>
      </g>
      <text x="12" y="44" stroke="none" fill="#3A352D" text-anchor="middle">monitor</text>
    </g>

    <!-- Row 3 ─ y center = 512 -->
    <g transform="translate(96, 512)">
      <g fill="none">
        <rect x="5" y="2" width="14" height="20" rx="2"/>
        <line x1="12" y1="18" x2="12.01" y2="18"/>
      </g>
      <text x="12" y="44" stroke="none" fill="#3A352D" text-anchor="middle">smartphone</text>
    </g>

    <g transform="translate(238, 512)">
      <g fill="none">
        <path d="M17.5 19a4.5 4.5 0 1 0 -1.41-8.775 5.5 5.5 0 0 0 -10.916 .195A4 4 0 0 0 6 19h11.5z"/>
      </g>
      <text x="12" y="44" stroke="none" fill="#3A352D" text-anchor="middle">cloud</text>
    </g>

    <g transform="translate(380, 512)">
      <g fill="none">
        <rect x="2" y="2" width="20" height="8" rx="2"/>
        <rect x="2" y="14" width="20" height="8" rx="2"/>
        <line x1="6" y1="6" x2="6.01" y2="6"/>
        <line x1="6" y1="18" x2="6.01" y2="18"/>
      </g>
      <text x="12" y="44" stroke="none" fill="#3A352D" text-anchor="middle">server</text>
    </g>

    <g transform="translate(522, 512)">
      <g fill="none">
        <ellipse cx="12" cy="5" rx="9" ry="3"/>
        <path d="M3 5v14a9 3 0 0 0 18 0V5"/>
        <path d="M3 12a9 3 0 0 0 18 0"/>
      </g>
      <text x="12" y="44" stroke="none" fill="#3A352D" text-anchor="middle">database</text>
    </g>

    <g transform="translate(664, 512)">
      <g fill="none">
        <path d="m3 3 7.07 16.97 2.51-7.39 7.39-2.51L3 3z"/>
        <path d="m13 13 6 6"/>
      </g>
      <text x="12" y="44" stroke="none" fill="#3A352D" text-anchor="middle">pointer</text>
    </g>

    <!-- Row 4 ─ y center = 608 -->
    <g transform="translate(96, 608)">
      <g fill="none">
        <path d="M2 12s3-7 10-7 10 7 10 7-3 7-10 7-10-7-10-7Z"/>
        <circle cx="12" cy="12" r="3"/>
      </g>
      <text x="12" y="44" stroke="none" fill="#3A352D" text-anchor="middle">eye</text>
    </g>

    <g transform="translate(238, 608)">
      <g fill="none">
        <path d="M14.5 4h-5L7 7H4a2 2 0 0 0-2 2v9a2 2 0 0 0 2 2h16a2 2 0 0 0 2-2V9a2 2 0 0 0-2-2h-3l-2.5-3z"/>
        <circle cx="12" cy="13" r="3"/>
      </g>
      <text x="12" y="44" stroke="none" fill="#3A352D" text-anchor="middle">camera</text>
    </g>

    <g transform="translate(380, 608)">
      <g fill="none">
        <path d="M21 16V8a2 2 0 0 0-1-1.73l-7-4a2 2 0 0 0-2 0l-7 4A2 2 0 0 0 3 8v8a2 2 0 0 0 1 1.73l7 4a2 2 0 0 0 2 0l7-4A2 2 0 0 0 21 16z"/>
        <polyline points="3.27 6.96 12 12.01 20.73 6.96"/>
        <line x1="12" y1="22.08" x2="12" y2="12"/>
      </g>
      <text x="12" y="44" stroke="none" fill="#3A352D" text-anchor="middle">box</text>
    </g>

    <g transform="translate(522, 608)">
      <g fill="none">
        <rect x="3" y="11" width="18" height="11" rx="2"/>
        <path d="M7 11V7a5 5 0 0 1 10 0v4"/>
      </g>
      <text x="12" y="44" stroke="none" fill="#3A352D" text-anchor="middle">lock</text>
    </g>

    <g transform="translate(664, 608)">
      <g fill="none">
        <circle cx="7.5" cy="15.5" r="5.5"/>
        <path d="m21 2-9.6 9.6"/>
        <path d="m15.5 7.5 3 3L22 7l-3-3"/>
      </g>
      <text x="12" y="44" stroke="none" fill="#3A352D" text-anchor="middle">key</text>
    </g>

    <!-- Row 5 ─ y center = 704 -->
    <g transform="translate(96, 704)">
      <g fill="none">
        <path d="M14.5 2H6a2 2 0 0 0-2 2v16a2 2 0 0 0 2 2h12a2 2 0 0 0 2-2V7.5L14.5 2z"/>
        <polyline points="14 2 14 8 20 8"/>
      </g>
      <text x="12" y="44" stroke="none" fill="#3A352D" text-anchor="middle">file</text>
    </g>

    <g transform="translate(238, 704)">
      <g fill="none">
        <path d="M22 19a2 2 0 0 1-2 2H4a2 2 0 0 1-2-2V5a2 2 0 0 1 2-2h5l2 3h9a2 2 0 0 1 2 2z"/>
      </g>
      <text x="12" y="44" stroke="none" fill="#3A352D" text-anchor="middle">folder</text>
    </g>

    <g transform="translate(380, 704)">
      <g fill="none">
        <polygon points="13 2 3 14 12 14 11 22 21 10 12 10 13 2"/>
      </g>
      <text x="12" y="44" stroke="none" fill="#3A352D" text-anchor="middle">zap</text>
    </g>

    <g transform="translate(522, 704)">
      <g fill="none">
        <polygon points="12 2 2 7 12 12 22 7 12 2"/>
        <polyline points="2 17 12 22 22 17"/>
        <polyline points="2 12 12 17 22 12"/>
      </g>
      <text x="12" y="44" stroke="none" fill="#3A352D" text-anchor="middle">layers</text>
    </g>

    <g transform="translate(664, 704)">
      <g fill="none">
        <line x1="5" y1="12" x2="19" y2="12"/>
        <polyline points="12 5 19 12 12 19"/>
      </g>
      <text x="12" y="44" stroke="none" fill="#3A352D" text-anchor="middle">arrow-right</text>
    </g>
  </g>

  <line x1="80" y1="780" x2="776" y2="780" stroke="#1A1A17" stroke-width="0.5" stroke-opacity="0.18"/>

  <!-- USAGE NOTES (left col, bottom) -->
  <text x="80" y="816"
        font-family="'IBM Plex Mono', ui-monospace, Menlo, monospace"
        font-size="11" font-weight="700" letter-spacing="2"
        fill="#3A352D">USAGE</text>

  <g font-family="Inter, sans-serif" font-size="13" font-weight="400" fill="#1A1A17">
    <text x="80" y="844">• <tspan font-family="'IBM Plex Mono', monospace" font-weight="600">{ kind: 'system', name: 'cog', size: 24 }</tspan></text>
    <text x="80" y="868">• Default fill: <tspan font-family="'IBM Plex Mono', monospace" font-weight="600">ink</tspan>. Override via <tspan font-family="'IBM Plex Mono', monospace" font-weight="600">color</tspan> token.</text>
    <text x="80" y="892">• Sizes: 16 · 20 · 24 · 32. Snap to type scale.</text>
    <text x="80" y="916">• Stroke-based; participate in the type-scale color rules.</text>
    <text x="80" y="940">• Adding an icon = adding a typed name to <tspan font-family="'IBM Plex Mono', monospace" font-weight="600">SystemIconName</tspan>; no escape hatch.</text>
  </g>

  <!-- ============================================================ -->
  <!-- BRAND ICONS (right column)                                   -->
  <!-- ============================================================ -->

  <text x="824" y="264"
        font-family="'IBM Plex Mono', ui-monospace, Menlo, monospace"
        font-size="11" font-weight="700" letter-spacing="2"
        fill="#3A352D">BRAND ICONS  ·  Simple Icons + multi-color brand glyphs</text>

  <!-- Chrome (multi-color, the centerpiece) -->
  <g transform="translate(872, 320)">
    <circle r="22" fill="#FAFAF7" stroke="#E5E3DC" stroke-width="0.8"/>
    <path d="M -22 0 A 22 22 0 0 1 11 -19 L 6 -10 A 12 12 0 0 0 -13 7 z" fill="#EA4335"/>
    <path d="M 11 -19 A 22 22 0 0 1 11 19 L 6 10 A 12 12 0 0 0 6 -10 z" fill="#FBBC04"/>
    <path d="M 11 19 A 22 22 0 0 1 -22 0 L -13 -7 A 12 12 0 0 0 6 10 z" fill="#34A853"/>
    <circle r="9" fill="#4285F4"/>
    <circle r="9" fill="none" stroke="#FAFAF7" stroke-width="2"/>
  </g>
  <text x="872" y="378" text-anchor="middle"
        font-family="'IBM Plex Mono', monospace" font-size="11" font-weight="600" fill="#3A352D">chrome</text>
  <text x="872" y="394" text-anchor="middle"
        font-family="'IBM Plex Mono', monospace" font-size="10" font-weight="400" fill="#6F6A60">multi-color</text>

  <!-- Firefox -->
  <g transform="translate(1006, 320) scale(1.0)">
    <circle r="22" fill="#FAFAF7" stroke="#E5E3DC" stroke-width="0.8"/>
    <g transform="translate(-12, -12) scale(1.0)">
      <path d="M9.27 7.94c.01 0 .01 0 0 0zM6.85 6.74c.02 0 .03.02 0 0z" fill="#FF7139"/>
      <path d="M21.81 10.24c-.43-1.03-1.31-2.15-2-2.5.56 1.1.88 2.2 1 3.02v.02c-1.13-2.81-3.04-3.95-4.6-6.41-.08-.13-.16-.25-.23-.39-.04-.07-.07-.14-.11-.21a1.85 1.85 0 0 1-.15-.4.02.02 0 0 0-.02-.02 0 0 0 0 0-.02 0c-.01 0-.02 0-.02.02-2.65 1.55-3.55 4.43-3.63 5.86-1.06.07-2.06.45-2.86 1.06A4.27 4.27 0 0 0 8 9.99c-1.43.53-2.91 1.91-3.41 3.6-.5 1.69-.43 2.96.17 3.83-.6.97-1.07 2.18-.87 3.5.42 2.81 2.87 4.97 5.6 4.95 4.97 0 7.93-3.42 7.93-3.42.05-.04.1-.09.14-.13l.05-.04.07-.07a8.94 8.94 0 0 0 1.85-3.34c.36-.84.55-1.74.55-2.66.01-.94-.34-2.14-.94-3.78l-.34.85z" fill="#FF7139"/>
    </g>
  </g>
  <text x="1006" y="378" text-anchor="middle"
        font-family="'IBM Plex Mono', monospace" font-size="11" font-weight="600" fill="#3A352D">firefox</text>
  <text x="1006" y="394" text-anchor="middle"
        font-family="'IBM Plex Mono', monospace" font-size="10" font-weight="400" fill="#6F6A60">monochrome</text>

  <!-- Safari (simplified) -->
  <g transform="translate(1140, 320)">
    <circle r="22" fill="#FAFAF7" stroke="#E5E3DC" stroke-width="0.8"/>
    <circle r="18" fill="none" stroke="#1A1A17" stroke-width="1.5"/>
    <polygon points="-10,-1 6,-3 -6,3 6,3" fill="#E04C3F" transform="rotate(45)"/>
    <circle r="3" fill="#FAFAF7" stroke="#1A1A17" stroke-width="1.5"/>
  </g>
  <text x="1140" y="378" text-anchor="middle"
        font-family="'IBM Plex Mono', monospace" font-size="11" font-weight="600" fill="#3A352D">safari</text>

  <!-- Edge (simplified swirl) -->
  <g transform="translate(1274, 320)">
    <circle r="22" fill="#FAFAF7" stroke="#E5E3DC" stroke-width="0.8"/>
    <path d="M -16 -2 A 16 16 0 1 1 16 -2 L 12 6 A 12 12 0 1 0 -12 6 z" fill="#0078D4"/>
    <path d="M -10 4 A 14 14 0 0 0 16 -2 L 12 6 A 10 10 0 0 1 -10 4 z" fill="#0BCDF2" opacity="0.85"/>
  </g>
  <text x="1274" y="378" text-anchor="middle"
        font-family="'IBM Plex Mono', monospace" font-size="11" font-weight="600" fill="#3A352D">edge</text>

  <!-- GitHub -->
  <g transform="translate(1408, 320)">
    <circle r="22" fill="#FAFAF7" stroke="#E5E3DC" stroke-width="0.8"/>
    <g transform="translate(-15.5, -15.5) scale(1.3)">
      <path fill="#1A1A17" d="M12 .297c-6.63 0-12 5.373-12 12 0 5.303 3.438 9.8 8.205 11.385.6.113.82-.258.82-.577 0-.285-.01-1.04-.015-2.04-3.338.724-4.042-1.61-4.042-1.61C4.422 18.07 3.633 17.7 3.633 17.7c-1.087-.744.084-.729.084-.729 1.205.084 1.838 1.236 1.838 1.236 1.07 1.835 2.809 1.305 3.495.998.108-.776.417-1.305.76-1.605-2.665-.3-5.466-1.332-5.466-5.93 0-1.31.465-2.38 1.235-3.22-.135-.303-.54-1.523.105-3.176 0 0 1.005-.322 3.3 1.23.96-.267 1.98-.4 3-.405 1.02.005 2.04.138 3 .405 2.28-1.552 3.285-1.23 3.285-1.23.645 1.653.24 2.873.12 3.176.765.84 1.23 1.91 1.23 3.22 0 4.61-2.805 5.625-5.475 5.92.42.36.81 1.096.81 2.22 0 1.606-.015 2.896-.015 3.286 0 .315.21.69.825.57C20.565 22.092 24 17.592 24 12.297c0-6.627-5.373-12-12-12"/>
    </g>
  </g>
  <text x="1408" y="378" text-anchor="middle"
        font-family="'IBM Plex Mono', monospace" font-size="11" font-weight="600" fill="#3A352D">github</text>

  <!-- Row 2 of brand icons (y=460) -->

  <!-- OpenAI -->
  <g transform="translate(872, 460)">
    <circle r="22" fill="#FAFAF7" stroke="#E5E3DC" stroke-width="0.8"/>
    <g transform="translate(-12, -12)">
      <path fill="#1A1A17" d="M22.282 9.821a5.985 5.985 0 0 0-.516-4.91 6.046 6.046 0 0 0-6.51-2.9A6.065 6.065 0 0 0 4.981 4.18a5.985 5.985 0 0 0-3.998 2.9 6.046 6.046 0 0 0 .743 7.097 5.98 5.98 0 0 0 .51 4.911 6.051 6.051 0 0 0 6.515 2.9A5.985 5.985 0 0 0 13.26 24a6.056 6.056 0 0 0 5.772-4.206 5.99 5.99 0 0 0 3.998-2.9 6.056 6.056 0 0 0-.748-7.073zM13.26 22.43a4.476 4.476 0 0 1-2.876-1.04l.142-.08 4.778-2.758a.795.795 0 0 0 .393-.681v-6.737l2.02 1.168a.071.071 0 0 1 .038.052v5.583a4.504 4.504 0 0 1-4.495 4.494zM3.6 18.304a4.47 4.47 0 0 1-.535-3.014l.142.085 4.783 2.759a.771.771 0 0 0 .78 0l5.843-3.369v2.332a.08.08 0 0 1-.033.062L9.74 19.95a4.499 4.499 0 0 1-6.14-1.646zM2.34 7.896a4.485 4.485 0 0 1 2.366-1.973V11.6a.766.766 0 0 0 .388.677l5.815 3.354-2.02 1.168a.076.076 0 0 1-.071 0l-4.83-2.786A4.504 4.504 0 0 1 2.34 7.896zm16.586 3.856-5.843-3.368L15.103 7.215a.076.076 0 0 1 .071 0l4.83 2.792a4.494 4.494 0 0 1-.676 8.104v-5.677a.79.79 0 0 0-.407-.682zm2.01-3.023-.141-.085-4.774-2.782a.776.776 0 0 0-.785 0L9.408 9.23V6.897a.066.066 0 0 1 .028-.061l4.83-2.787a4.499 4.499 0 0 1 6.68 4.66zM8.307 12.863l-2.02-1.164a.08.08 0 0 1-.038-.057V6.075a4.499 4.499 0 0 1 7.376-3.453l-.142.08L8.704 5.46a.795.795 0 0 0-.393.681zm1.097-2.366 2.602-1.5 2.607 1.5v3l-2.597 1.5-2.607-1.5z"/>
    </g>
  </g>
  <text x="872" y="518" text-anchor="middle"
        font-family="'IBM Plex Mono', monospace" font-size="11" font-weight="600" fill="#3A352D">openai</text>

  <!-- Anthropic -->
  <g transform="translate(1006, 460)">
    <circle r="22" fill="#FAFAF7" stroke="#E5E3DC" stroke-width="0.8"/>
    <g transform="translate(-12, -12)">
      <path fill="#1A1A17" d="M13.827 3.52h3.603L24 20h-3.603l-6.57-16.48zm-7.258 0h3.767L16.906 20h-3.674l-1.343-3.461H5.017l-1.344 3.46H0L6.57 3.522zm4.132 9.959L8.453 7.687 6.205 13.48z"/>
    </g>
  </g>
  <text x="1006" y="518" text-anchor="middle"
        font-family="'IBM Plex Mono', monospace" font-size="11" font-weight="600" fill="#3A352D">anthropic</text>

  <!-- Slack -->
  <g transform="translate(1140, 460)">
    <circle r="22" fill="#FAFAF7" stroke="#E5E3DC" stroke-width="0.8"/>
    <g transform="translate(-12, -12)">
      <path fill="#E01E5A" d="M5.042 15.165a2.528 2.528 0 0 1-2.52 2.523A2.528 2.528 0 0 1 0 15.165a2.527 2.527 0 0 1 2.522-2.52h2.52v2.52z"/>
      <path fill="#E01E5A" d="M6.313 15.165a2.527 2.527 0 0 1 2.521-2.52 2.527 2.527 0 0 1 2.521 2.52v6.313A2.528 2.528 0 0 1 8.834 24a2.528 2.528 0 0 1-2.521-2.522v-6.313z"/>
      <path fill="#36C5F0" d="M8.834 5.042a2.528 2.528 0 0 1-2.521-2.52A2.528 2.528 0 0 1 8.834 0a2.528 2.528 0 0 1 2.521 2.522v2.52H8.834z"/>
      <path fill="#36C5F0" d="M8.834 6.313a2.528 2.528 0 0 1 2.521 2.521 2.528 2.528 0 0 1-2.521 2.521H2.522A2.528 2.528 0 0 1 0 8.834a2.528 2.528 0 0 1 2.522-2.521h6.312z"/>
      <path fill="#2EB67D" d="M18.956 8.834a2.528 2.528 0 0 1 2.522-2.521A2.528 2.528 0 0 1 24 8.834a2.528 2.528 0 0 1-2.522 2.521h-2.522V8.834z"/>
      <path fill="#2EB67D" d="M17.688 8.834a2.528 2.528 0 0 1-2.523 2.521 2.527 2.527 0 0 1-2.52-2.521V2.522A2.527 2.527 0 0 1 15.165 0a2.528 2.528 0 0 1 2.523 2.522v6.312z"/>
      <path fill="#ECB22E" d="M15.165 18.956a2.528 2.528 0 0 1 2.523 2.522A2.528 2.528 0 0 1 15.165 24a2.527 2.527 0 0 1-2.52-2.522v-2.522h2.52z"/>
      <path fill="#ECB22E" d="M15.165 17.688a2.527 2.527 0 0 1-2.52-2.523 2.526 2.526 0 0 1 2.52-2.52h6.313A2.527 2.527 0 0 1 24 15.165a2.528 2.528 0 0 1-2.522 2.523h-6.313z"/>
    </g>
  </g>
  <text x="1140" y="518" text-anchor="middle"
        font-family="'IBM Plex Mono', monospace" font-size="11" font-weight="600" fill="#3A352D">slack</text>

  <!-- Discord -->
  <g transform="translate(1274, 460)">
    <circle r="22" fill="#FAFAF7" stroke="#E5E3DC" stroke-width="0.8"/>
    <g transform="translate(-12, -12)">
      <path fill="#5865F2" d="M20.317 4.37a19.79 19.79 0 0 0-4.885-1.515.074.074 0 0 0-.079.037c-.21.375-.444.864-.608 1.25a18.27 18.27 0 0 0-5.487 0 12.64 12.64 0 0 0-.617-1.25.077.077 0 0 0-.079-.037A19.736 19.736 0 0 0 3.677 4.37a.07.07 0 0 0-.032.027C.533 9.046-.32 13.58.099 18.057a.082.082 0 0 0 .031.057 19.9 19.9 0 0 0 5.993 3.03.078.078 0 0 0 .084-.028 14.09 14.09 0 0 0 1.226-1.994.076.076 0 0 0-.041-.106 13.107 13.107 0 0 1-1.872-.892.077.077 0 0 1-.008-.128 10.2 10.2 0 0 0 .372-.292.074.074 0 0 1 .077-.01c3.928 1.793 8.18 1.793 12.062 0a.074.074 0 0 1 .078.01c.12.098.246.198.373.292a.077.077 0 0 1-.006.127 12.299 12.299 0 0 1-1.873.892.077.077 0 0 0-.041.107c.36.698.772 1.362 1.225 1.993a.076.076 0 0 0 .084.028 19.839 19.839 0 0 0 6.002-3.03.077.077 0 0 0 .032-.054c.5-5.177-.838-9.674-3.549-13.66a.061.061 0 0 0-.031-.03zM8.02 15.33c-1.183 0-2.157-1.085-2.157-2.419 0-1.333.956-2.419 2.157-2.419 1.21 0 2.176 1.096 2.157 2.42 0 1.333-.956 2.418-2.157 2.418zm7.975 0c-1.183 0-2.157-1.085-2.157-2.419 0-1.333.955-2.419 2.157-2.419 1.21 0 2.176 1.096 2.157 2.42 0 1.333-.946 2.418-2.157 2.418z"/>
    </g>
  </g>
  <text x="1274" y="518" text-anchor="middle"
        font-family="'IBM Plex Mono', monospace" font-size="11" font-weight="600" fill="#3A352D">discord</text>

  <!-- Apple -->
  <g transform="translate(1408, 460)">
    <circle r="22" fill="#FAFAF7" stroke="#E5E3DC" stroke-width="0.8"/>
    <g transform="translate(-12, -12)">
      <path fill="#1A1A17" d="M17.05 20.28c-.98.95-2.05.8-3.08.35-1.09-.46-2.09-.48-3.24 0-1.44.62-2.2.44-3.06-.35C2.79 15.25 3.51 7.59 9.05 7.31c1.35.07 2.29.74 3.08.8 1.18-.24 2.31-.93 3.57-.84 1.51.12 2.65.72 3.4 1.8-3.12 1.87-2.38 5.98.48 7.13-.57 1.5-1.31 2.99-2.54 4.09zM12 7.25c-.15-2.23 1.66-4.07 3.74-4.25.29 2.58-2.34 4.5-3.74 4.25z"/>
    </g>
  </g>
  <text x="1408" y="518" text-anchor="middle"
        font-family="'IBM Plex Mono', monospace" font-size="11" font-weight="600" fill="#3A352D">apple</text>

  <line x1="824" y1="560" x2="1520" y2="560" stroke="#1A1A17" stroke-width="0.5" stroke-opacity="0.18"/>

  <!-- ============================================================ -->
  <!-- SIZE LADDER (right column, lower)                            -->
  <!-- ============================================================ -->
  <text x="824" y="600"
        font-family="'IBM Plex Mono', ui-monospace, Menlo, monospace"
        font-size="11" font-weight="700" letter-spacing="2"
        fill="#3A352D">SIZE LADDER  ·  same icon, four sizes</text>

  <!-- Cog at 16, 20, 24, 32 -->
  <g stroke="#1A1A17" stroke-linecap="round" stroke-linejoin="round" fill="none">
    <!-- 16 px -->
    <g transform="translate(848, 644) scale(0.667)" stroke-width="2.25">
      <path d="M12.22 2h-.44a2 2 0 0 0-2 2v.18a2 2 0 0 1-1 1.73l-.43.25a2 2 0 0 1-2 0l-.15-.08a2 2 0 0 0-2.73.73l-.22.38a2 2 0 0 0 .73 2.73l.15.1a2 2 0 0 1 1 1.72v.51a2 2 0 0 1-1 1.74l-.15.09a2 2 0 0 0-.73 2.73l.22.38a2 2 0 0 0 2.73.73l.15-.08a2 2 0 0 1 2 0l.43.25a2 2 0 0 1 1 1.73V20a2 2 0 0 0 2 2h.44a2 2 0 0 0 2-2v-.18a2 2 0 0 1 1-1.73l.43-.25a2 2 0 0 1 2 0l.15.08a2 2 0 0 0 2.73-.73l.22-.39a2 2 0 0 0-.73-2.73l-.15-.08a2 2 0 0 1-1-1.74v-.5a2 2 0 0 1 1-1.74l.15-.09a2 2 0 0 0 .73-2.73l-.22-.38a2 2 0 0 0-2.73-.73l-.15.08a2 2 0 0 1-2 0l-.43-.25a2 2 0 0 1-1-1.73V4a2 2 0 0 0-2-2z"/>
      <circle cx="12" cy="12" r="3"/>
    </g>
    <!-- 20 -->
    <g transform="translate(896, 642) scale(0.833)" stroke-width="1.8">
      <path d="M12.22 2h-.44a2 2 0 0 0-2 2v.18a2 2 0 0 1-1 1.73l-.43.25a2 2 0 0 1-2 0l-.15-.08a2 2 0 0 0-2.73.73l-.22.38a2 2 0 0 0 .73 2.73l.15.1a2 2 0 0 1 1 1.72v.51a2 2 0 0 1-1 1.74l-.15.09a2 2 0 0 0-.73 2.73l.22.38a2 2 0 0 0 2.73.73l.15-.08a2 2 0 0 1 2 0l.43.25a2 2 0 0 1 1 1.73V20a2 2 0 0 0 2 2h.44a2 2 0 0 0 2-2v-.18a2 2 0 0 1 1-1.73l.43-.25a2 2 0 0 1 2 0l.15.08a2 2 0 0 0 2.73-.73l.22-.39a2 2 0 0 0-.73-2.73l-.15-.08a2 2 0 0 1-1-1.74v-.5a2 2 0 0 1 1-1.74l.15-.09a2 2 0 0 0 .73-2.73l-.22-.38a2 2 0 0 0-2.73-.73l-.15.08a2 2 0 0 1-2 0l-.43-.25a2 2 0 0 1-1-1.73V4a2 2 0 0 0-2-2z"/>
      <circle cx="12" cy="12" r="3"/>
    </g>
    <!-- 24 -->
    <g transform="translate(956, 640)" stroke-width="1.5">
      <path d="M12.22 2h-.44a2 2 0 0 0-2 2v.18a2 2 0 0 1-1 1.73l-.43.25a2 2 0 0 1-2 0l-.15-.08a2 2 0 0 0-2.73.73l-.22.38a2 2 0 0 0 .73 2.73l.15.1a2 2 0 0 1 1 1.72v.51a2 2 0 0 1-1 1.74l-.15.09a2 2 0 0 0-.73 2.73l.22.38a2 2 0 0 0 2.73.73l.15-.08a2 2 0 0 1 2 0l.43.25a2 2 0 0 1 1 1.73V20a2 2 0 0 0 2 2h.44a2 2 0 0 0 2-2v-.18a2 2 0 0 1 1-1.73l.43-.25a2 2 0 0 1 2 0l.15.08a2 2 0 0 0 2.73-.73l.22-.39a2 2 0 0 0-.73-2.73l-.15-.08a2 2 0 0 1-1-1.74v-.5a2 2 0 0 1 1-1.74l.15-.09a2 2 0 0 0 .73-2.73l-.22-.38a2 2 0 0 0-2.73-.73l-.15.08a2 2 0 0 1-2 0l-.43-.25a2 2 0 0 1-1-1.73V4a2 2 0 0 0-2-2z"/>
      <circle cx="12" cy="12" r="3"/>
    </g>
    <!-- 32 -->
    <g transform="translate(1024, 636) scale(1.333)" stroke-width="1.125">
      <path d="M12.22 2h-.44a2 2 0 0 0-2 2v.18a2 2 0 0 1-1 1.73l-.43.25a2 2 0 0 1-2 0l-.15-.08a2 2 0 0 0-2.73.73l-.22.38a2 2 0 0 0 .73 2.73l.15.1a2 2 0 0 1 1 1.72v.51a2 2 0 0 1-1 1.74l-.15.09a2 2 0 0 0-.73 2.73l.22.38a2 2 0 0 0 2.73.73l.15-.08a2 2 0 0 1 2 0l.43.25a2 2 0 0 1 1 1.73V20a2 2 0 0 0 2 2h.44a2 2 0 0 0 2-2v-.18a2 2 0 0 1 1-1.73l.43-.25a2 2 0 0 1 2 0l.15.08a2 2 0 0 0 2.73-.73l.22-.39a2 2 0 0 0-.73-2.73l-.15-.08a2 2 0 0 1-1-1.74v-.5a2 2 0 0 1 1-1.74l.15-.09a2 2 0 0 0 .73-2.73l-.22-.38a2 2 0 0 0-2.73-.73l-.15.08a2 2 0 0 1-2 0l-.43-.25a2 2 0 0 1-1-1.73V4a2 2 0 0 0-2-2z"/>
      <circle cx="12" cy="12" r="3"/>
    </g>
  </g>
  <g font-family="'IBM Plex Mono', monospace" font-size="10" font-weight="500" fill="#6F6A60" text-anchor="middle">
    <text x="856" y="700">16</text>
    <text x="906" y="700">20</text>
    <text x="968" y="700">24</text>
    <text x="1040" y="700">32</text>
  </g>

  <!-- ============================================================ -->
  <!-- IN-CONTEXT (right column, bottom)                            -->
  <!-- ============================================================ -->
  <text x="824" y="744"
        font-family="'IBM Plex Mono', ui-monospace, Menlo, monospace"
        font-size="11" font-weight="700" letter-spacing="2"
        fill="#3A352D">IN CONTEXT  ·  icon + node title</text>

  <!-- Capsule with chrome icon -->
  <g transform="translate(824, 776)">
    <rect width="240" height="60" rx="30" fill="#E8F0FE" stroke="#1A4596" stroke-width="1.2"/>
    <g transform="translate(38, 30)">
      <circle r="14" fill="#FAFAF7"/>
      <path d="M -14 0 A 14 14 0 0 1 7 -12.1 L 3.8 -6.4 A 7.6 7.6 0 0 0 -8.3 4.5 z" fill="#EA4335"/>
      <path d="M 7 -12.1 A 14 14 0 0 1 7 12.1 L 3.8 6.4 A 7.6 7.6 0 0 0 3.8 -6.4 z" fill="#FBBC04"/>
      <path d="M 7 12.1 A 14 14 0 0 1 -14 0 L -8.3 -4.5 A 7.6 7.6 0 0 0 3.8 6.4 z" fill="#34A853"/>
      <circle r="5.7" fill="#4285F4"/>
      <circle r="5.7" fill="none" stroke="#FAFAF7" stroke-width="1.2"/>
    </g>
    <text x="64" y="36"
          font-family="Inter, sans-serif" font-size="15" font-weight="700" fill="#1A1A17">Google Chrome</text>
  </g>

  <!-- Capsule-cylinder with cog icon (RZN runtime component) -->
  <g transform="translate(824, 856)">
    <rect width="240" height="60" rx="30" fill="#F4FAEB" stroke="#3F6F1A" stroke-width="1.2"/>
    <line x1="20" y1="14" x2="20" y2="46" stroke="#3F6F1A" stroke-width="1.2"/>
    <line x1="220" y1="14" x2="220" y2="46" stroke="#3F6F1A" stroke-width="1.2"/>
    <g transform="translate(36, 18)" stroke="#1A1A17" stroke-width="1.5" stroke-linecap="round" stroke-linejoin="round" fill="none">
      <path d="M12.22 2h-.44a2 2 0 0 0-2 2v.18a2 2 0 0 1-1 1.73l-.43.25a2 2 0 0 1-2 0l-.15-.08a2 2 0 0 0-2.73.73l-.22.38a2 2 0 0 0 .73 2.73l.15.1a2 2 0 0 1 1 1.72v.51a2 2 0 0 1-1 1.74l-.15.09a2 2 0 0 0-.73 2.73l.22.38a2 2 0 0 0 2.73.73l.15-.08a2 2 0 0 1 2 0l.43.25a2 2 0 0 1 1 1.73V20a2 2 0 0 0 2 2h.44a2 2 0 0 0 2-2v-.18a2 2 0 0 1 1-1.73l.43-.25a2 2 0 0 1 2 0l.15.08a2 2 0 0 0 2.73-.73l.22-.39a2 2 0 0 0-.73-2.73l-.15-.08a2 2 0 0 1-1-1.74v-.5a2 2 0 0 1 1-1.74l.15-.09a2 2 0 0 0 .73-2.73l-.22-.38a2 2 0 0 0-2.73-.73l-.15.08a2 2 0 0 1-2 0l-.43-.25a2 2 0 0 1-1-1.73V4a2 2 0 0 0-2-2z"/>
      <circle cx="12" cy="12" r="3"/>
    </g>
    <text x="74" y="36"
          font-family="Inter, sans-serif" font-size="15" font-weight="700" fill="#1A1A17">Planner</text>
  </g>

  <!-- Card with monitor icon (passive artifact) -->
  <g transform="translate(824, 936)">
    <rect width="240" height="60" rx="8" fill="#FFFFFF" stroke="#3A352D" stroke-width="1.2"/>
    <g transform="translate(20, 18)" stroke="#1A1A17" stroke-width="1.5" stroke-linecap="round" stroke-linejoin="round" fill="none">
      <rect x="2" y="3" width="20" height="14" rx="2"/>
      <line x1="8" y1="21" x2="16" y2="21"/>
      <line x1="12" y1="17" x2="12" y2="21"/>
    </g>
    <text x="60" y="36"
          font-family="Inter, sans-serif" font-size="15" font-weight="700" fill="#1A1A17">Target web app</text>
  </g>

  <line x1="824" y1="1020" x2="1520" y2="1020" stroke="#1A1A17" stroke-width="0.5" stroke-opacity="0.18"/>

  <!-- POLICY (right col, bottom) -->
  <text x="824" y="1056"
        font-family="'IBM Plex Mono', ui-monospace, Menlo, monospace"
        font-size="11" font-weight="700" letter-spacing="2"
        fill="#3A352D">POLICY</text>

  <g font-family="Inter, sans-serif" font-size="13" font-weight="400" fill="#1A1A17">
    <text x="824" y="1084">• Brand glyphs in branded contexts only (Chrome inside Chrome capsule).</text>
    <text x="824" y="1108">• Brand glyphs follow the brand: minimum 20 px, clear-space, no recolor.</text>
    <text x="824" y="1132">• System icons are monochrome; inherit ink, override semantically.</text>
  </g>

  <!-- FOOTER -->
  <line x1="80" y1="1170" x2="1520" y2="1170" stroke="#1A1A17" stroke-width="0.5" stroke-opacity="0.18"/>
  <text x="80" y="1192"
        font-family="'IBM Plex Mono', ui-monospace, Menlo, monospace"
        font-size="11" font-weight="500" letter-spacing="1.5"
        fill="#6F6A60">RZN DIAGRAM SYSTEM  ·  ICONS  ·  v1</text>
  <text x="1520" y="1192" text-anchor="end"
        font-family="'IBM Plex Mono', ui-monospace, Menlo, monospace"
        font-size="11" font-weight="500" letter-spacing="1.5"
        fill="#6F6A60">CURATED  ·  INLINE  ·  DETERMINISTIC</text>
</svg>
